<?xml version="1.0" encoding="utf-8"?>
<!-- Generator: Adobe Illustrator 19.0.0, SVG Export Plug-In . SVG Version: 6.00 Build 0)  -->
<svg version="1.1" id="Layer_1" xmlns="http://www.w3.org/2000/svg" xmlns:xlink="http://www.w3.org/1999/xlink" x="0px" y="0px"
	 viewBox="0 0 500 500" style="enable-background:new 0 0 500 500;" xml:space="preserve">
<style type="text/css">
	.st0{fill:#BC1822;}
	.st1{fill:url(#XMLID_67_);}
	.st2{fill:url(#XMLID_69_);}
	.st3{fill:url(#XMLID_79_);}
	.st4{fill:none;stroke:#231F20;stroke-width:0.25;}
	.st5{fill:url(#XMLID_84_);}
	.st6{fill:url(#XMLID_87_);}
	.st7{fill:url(#XMLID_90_);}
	.st8{fill:url(#XMLID_91_);}
	.st9{fill:url(#XMLID_93_);}
	.st10{fill:url(#XMLID_94_);}
	.st11{fill:url(#XMLID_95_);}
	.st12{fill:url(#XMLID_96_);}
	.st13{fill:url(#XMLID_97_);}
	.st14{fill:url(#XMLID_98_);}
	.st15{fill:#FFFFFF;stroke:#000000;stroke-width:0.25;}
	.st16{fill:url(#XMLID_99_);}
	.st17{fill:none;stroke:#E8E8E8;stroke-width:0.25;}
	.st18{fill:url(#XMLID_100_);}
	.st19{fill:url(#XMLID_101_);}
</style>
<g id="XMLID_1_">
	<g id="XMLID_54_">
		<g id="XMLID_213_">
			<g id="XMLID_231_">
				<path id="XMLID_232_" class="st0" d="M132.9,296.6v10.2H82c0,0-1.9-0.5-1.9,1.9s0,20.5,0,20.5s-0.3,1.9,1.9,1.9
					c2.2,0,50.8,0,50.8,0v9.3H80.2c0,0-10.2-0.9-10.2-10.2v-23.1c0,0-1.2-10.4,10.4-10.4L132.9,296.6z"/>
			</g>
			<g id="XMLID_229_">
				<path id="XMLID_230_" class="st0" d="M225.3,314h46.2v9.5h-48.1v5.6c0,0-0.3,1.9,2,1.9c2.2,0,52.4,0,52.4,0v9.3h-54.3
					c0,0-10.5-0.9-10.5-10.2v-23.1c0,0-1.2-10.4,10.7-10.4l54.2-0.1v9.2c0,0-48.4,0-52.5,0c0,0-2,0.2-2,2c0,1.8,0,1.8,0,1.8v4.3
					L225.3,314z"/>
			</g>
			<g id="XMLID_227_">
				<path id="XMLID_228_" class="st0" d="M223.4,306.7"/>
			</g>
			<g id="XMLID_222_">
				<polygon id="XMLID_226_" class="st0" points="140.7,296.3 150.8,296.3 150.8,314.2 193.9,314.2 193.9,296.4 204.5,296.4 
					204.5,340.9 194.2,340.9 194.2,323.7 150.8,323.7 150.8,340.6 140.6,340.6 				"/>
			</g>
			<g id="XMLID_216_">
				<g id="XMLID_217_">
					<path id="XMLID_218_" class="st0" d="M285.9,296.4h55.5h2.1c0,0,7.1,2.6,7.1,7.1c0,4.4,0,10.4,0,10.4s0.6,7.4-7.4,7.4
						c-8,0-8.8,0-8.8,0l18.4,19.5h-13.3l-17-19.6h-25.9v19.5H286L285.9,296.4z M296.3,313.7h43.1c0,0,2.2-0.3,2.2-2.2c0-1.9,0-3,0-3
						s0.5-2.1-2.1-2.1h-43.3L296.3,313.7z"/>
				</g>
			</g>
			<g id="XMLID_214_">
				<polygon id="XMLID_215_" class="st0" points="352.9,296.3 368.5,296.3 392.1,317 415.7,296.3 430,296.3 398,325.6 398,340.6 
					386.2,340.6 386.2,325.4 				"/>
			</g>
		</g>
	</g>
	<g id="XMLID_2_">
		<linearGradient id="XMLID_67_" gradientUnits="userSpaceOnUse" x1="195.8588" y1="215.3226" x2="171.9647" y2="200.3193">
			<stop  offset="0" style="stop-color:#E8E8E8"/>
			<stop  offset="1" style="stop-color:#495153"/>
		</linearGradient>
		<polygon id="XMLID_51_" class="st1" points="242.7,166.5 169.3,253.6 144.9,261.7 231.2,159.1 		"/>
		<linearGradient id="XMLID_69_" gradientUnits="userSpaceOnUse" x1="295.1779" y1="162.1517" x2="289.0656" y2="250.7805">
			<stop  offset="3.296700e-002" style="stop-color:#E8E8E8"/>
			<stop  offset="9.800372e-002" style="stop-color:#D6D7D7"/>
			<stop  offset="0.3003" style="stop-color:#A4A8A8"/>
			<stop  offset="0.4911" style="stop-color:#7D8283"/>
			<stop  offset="0.6651" style="stop-color:#606769"/>
			<stop  offset="0.8165" style="stop-color:#4F5759"/>
			<stop  offset="0.9286" style="stop-color:#495153"/>
		</linearGradient>
		<polygon id="XMLID_50_" class="st2" points="242.7,166.5 316,253.6 340.5,261.7 254.2,159.1 		"/>
		<linearGradient id="XMLID_79_" gradientUnits="userSpaceOnUse" x1="242.6964" y1="167.2658" x2="242.6964" y2="155.227">
			<stop  offset="0" style="stop-color:#E8E8E8"/>
			<stop  offset="0.1238" style="stop-color:#C9CACB"/>
			<stop  offset="0.327" style="stop-color:#9B9FA0"/>
			<stop  offset="0.5222" style="stop-color:#787D7F"/>
			<stop  offset="0.7045" style="stop-color:#5E6567"/>
			<stop  offset="0.8689" style="stop-color:#4E5658"/>
			<stop  offset="1" style="stop-color:#495153"/>
		</linearGradient>
		<polygon id="XMLID_47_" class="st3" points="242.7,166.5 254.2,159.1 231.2,159.1 		"/>
		<path id="XMLID_46_" class="st4" d="M189.3,176.8"/>
		<path id="XMLID_45_" class="st4" d="M189.4,176.8"/>
		<linearGradient id="XMLID_84_" gradientUnits="userSpaceOnUse" x1="203.971" y1="164.3715" x2="190.9129" y2="170.2059">
			<stop  offset="0" style="stop-color:#FFFFFF"/>
			<stop  offset="1" style="stop-color:#495153"/>
		</linearGradient>
		<polygon id="XMLID_42_" class="st5" points="189.3,176.8 201,159.9 189.3,169.1 		"/>
		<linearGradient id="XMLID_87_" gradientUnits="userSpaceOnUse" x1="162.6516" y1="218.6579" x2="104.0296" y2="120.8619">
			<stop  offset="0" style="stop-color:#495153"/>
			<stop  offset="0.3571" style="stop-color:#E8E8E8"/>
			<stop  offset="0.4243" style="stop-color:#DDDDDE"/>
			<stop  offset="0.5428" style="stop-color:#BFC1C2"/>
			<stop  offset="0.6986" style="stop-color:#8F9495"/>
			<stop  offset="0.884" style="stop-color:#4D5557"/>
			<stop  offset="0.8956" style="stop-color:#495153"/>
		</linearGradient>
		<path id="XMLID_39_" class="st6" d="M177.9,236.9l-17.4,6.3C77.3,230.6,83,203.8,83,203.8c-0.2-34.6,118-43.9,118-43.9l-11.7,9.3
			c0,0-96.4,13.9-93.6,34.5C98.5,224.2,177.9,236.9,177.9,236.9z"/>
		<linearGradient id="XMLID_90_" gradientUnits="userSpaceOnUse" x1="157.4102" y1="222.2696" x2="133.8884" y2="167.2601">
			<stop  offset="0" style="stop-color:#E8E8E8"/>
			<stop  offset="0.1238" style="stop-color:#C9CACB"/>
			<stop  offset="0.327" style="stop-color:#9B9FA0"/>
			<stop  offset="0.5222" style="stop-color:#787D7F"/>
			<stop  offset="0.7045" style="stop-color:#5E6567"/>
			<stop  offset="0.8689" style="stop-color:#4E5658"/>
			<stop  offset="1" style="stop-color:#495153"/>
		</linearGradient>
		<path id="XMLID_36_" class="st7" d="M189.4,169.1v7.7c0,0-80.8,6-80.8,26.4c0,20.4,64.1,25.6,64.1,25.6l5.2,8.1
			c0,0-82.2-10-82.2-33.3C95.6,180.2,189.4,169.1,189.4,169.1z"/>
		<linearGradient id="XMLID_91_" gradientUnits="userSpaceOnUse" x1="145.3118" y1="257.5351" x2="182.1695" y2="257.9063">
			<stop  offset="0" style="stop-color:#E8E8E8"/>
			<stop  offset="0.1238" style="stop-color:#C9CACB"/>
			<stop  offset="0.327" style="stop-color:#9B9FA0"/>
			<stop  offset="0.5222" style="stop-color:#787D7F"/>
			<stop  offset="0.7045" style="stop-color:#5E6567"/>
			<stop  offset="0.8689" style="stop-color:#4E5658"/>
			<stop  offset="1" style="stop-color:#495153"/>
		</linearGradient>
		<polygon id="XMLID_33_" class="st8" points="144.9,261.7 177.7,261.7 169.3,253.6 		"/>
		<linearGradient id="XMLID_93_" gradientUnits="userSpaceOnUse" x1="249.2723" y1="170.4224" x2="162.4022" y2="267.4804">
			<stop  offset="0" style="stop-color:#495153"/>
			<stop  offset="8.479545e-004" style="stop-color:#4A5254"/>
			<stop  offset="4.718384e-002" style="stop-color:#73787A"/>
			<stop  offset="9.437374e-002" style="stop-color:#959899"/>
			<stop  offset="0.1425" style="stop-color:#AFB1B2"/>
			<stop  offset="0.1916" style="stop-color:#C2C3C3"/>
			<stop  offset="0.2422" style="stop-color:#CDCECE"/>
			<stop  offset="0.2967" style="stop-color:#D1D1D1"/>
			<stop  offset="0.6344" style="stop-color:#888D8E"/>
			<stop  offset="0.878" style="stop-color:#5B6263"/>
			<stop  offset="1" style="stop-color:#495153"/>
		</linearGradient>
		<polygon id="XMLID_26_" class="st9" points="242.7,166.5 242.7,182.5 177.7,261.7 169.3,253.6 		"/>
		
			<linearGradient id="XMLID_94_" gradientUnits="userSpaceOnUse" x1="509.8653" y1="170.4224" x2="422.9951" y2="267.4804" gradientTransform="matrix(-1 0 0 1 746 0)">
			<stop  offset="0" style="stop-color:#000000"/>
			<stop  offset="2.137812e-002" style="stop-color:#202020"/>
			<stop  offset="5.811569e-002" style="stop-color:#515151"/>
			<stop  offset="9.587075e-002" style="stop-color:#7A7A7A"/>
			<stop  offset="0.134" style="stop-color:#9D9D9D"/>
			<stop  offset="0.1728" style="stop-color:#B7B7B7"/>
			<stop  offset="0.2122" style="stop-color:#CACACA"/>
			<stop  offset="0.2529" style="stop-color:#D5D5D5"/>
			<stop  offset="0.2967" style="stop-color:#D9D9D9"/>
			<stop  offset="0.3282" style="stop-color:#D2D2D2"/>
			<stop  offset="0.6518" style="stop-color:#888D8E"/>
			<stop  offset="0.8838" style="stop-color:#5B6263"/>
			<stop  offset="1" style="stop-color:#495153"/>
		</linearGradient>
		<polygon id="XMLID_22_" class="st10" points="242.7,166.5 242.7,182.5 307.8,261.7 316.1,253.6 		"/>
		
			<linearGradient id="XMLID_95_" gradientUnits="userSpaceOnUse" x1="405.8999" y1="257.5351" x2="442.7605" y2="257.9063" gradientTransform="matrix(-1 0 0 1 746 0)">
			<stop  offset="0" style="stop-color:#E8E8E8"/>
			<stop  offset="8.516701e-003" style="stop-color:#E3E3E3"/>
			<stop  offset="8.655792e-002" style="stop-color:#BABDBD"/>
			<stop  offset="0.1694" style="stop-color:#979B9C"/>
			<stop  offset="0.2565" style="stop-color:#7B8082"/>
			<stop  offset="0.3494" style="stop-color:#656B6D"/>
			<stop  offset="0.4507" style="stop-color:#555C5E"/>
			<stop  offset="0.5668" style="stop-color:#4C5456"/>
			<stop  offset="0.7308" style="stop-color:#495153"/>
		</linearGradient>
		<polygon id="XMLID_19_" class="st11" points="340.5,261.7 307.7,261.7 316.1,253.6 		"/>
		
			<linearGradient id="XMLID_96_" gradientUnits="userSpaceOnUse" x1="491.9164" y1="164.3715" x2="478.8584" y2="170.2059" gradientTransform="matrix(-1 0 0 1 773.3789 0)">
			<stop  offset="0" style="stop-color:#FFFFFF"/>
			<stop  offset="1" style="stop-color:#495153"/>
		</linearGradient>
		<polygon id="XMLID_16_" class="st12" points="296.2,176.8 284.5,159.9 296.1,169.1 		"/>
		
			<linearGradient id="XMLID_97_" gradientUnits="userSpaceOnUse" x1="450.5972" y1="218.6579" x2="391.9751" y2="120.8618" gradientTransform="matrix(-1 0 0 1 773.3789 0)">
			<stop  offset="0" style="stop-color:#495153"/>
			<stop  offset="0.3571" style="stop-color:#E8E8E8"/>
			<stop  offset="0.4243" style="stop-color:#DDDDDE"/>
			<stop  offset="0.5428" style="stop-color:#BFC1C2"/>
			<stop  offset="0.6986" style="stop-color:#8F9495"/>
			<stop  offset="0.884" style="stop-color:#4D5557"/>
			<stop  offset="0.8956" style="stop-color:#495153"/>
		</linearGradient>
		<path id="XMLID_13_" class="st13" d="M307.6,236.9l17.4,6.3c83.2-12.6,77.4-39.5,77.4-39.5c0.2-34.6-118-43.9-118-43.9l11.7,9.3
			c0,0,96.4,13.9,93.6,34.5C386.9,224.2,307.6,236.9,307.6,236.9z"/>
		
			<linearGradient id="XMLID_98_" gradientUnits="userSpaceOnUse" x1="445.3547" y1="222.2698" x2="421.8325" y2="167.2597" gradientTransform="matrix(-1 0 0 1 773.3789 0)">
			<stop  offset="0" style="stop-color:#E8E8E8"/>
			<stop  offset="9.820542e-002" style="stop-color:#C1C3C3"/>
			<stop  offset="0.2229" style="stop-color:#969A9B"/>
			<stop  offset="0.344" style="stop-color:#757A7C"/>
			<stop  offset="0.4588" style="stop-color:#5D6465"/>
			<stop  offset="0.5649" style="stop-color:#4E5658"/>
			<stop  offset="0.6538" style="stop-color:#495153"/>
		</linearGradient>
		<path id="XMLID_10_" class="st14" d="M296.1,169.1v7.7c0,0,80.8,6,80.8,26.4c0,20.4-64.1,25.6-64.1,25.6l-5.2,8.1
			c0,0,82.2-10,82.2-33.3C389.8,180.2,296.1,169.1,296.1,169.1z"/>
		<path id="XMLID_9_" class="st15" d="M267.7,231.4"/>
		<linearGradient id="XMLID_99_" gradientUnits="userSpaceOnUse" x1="277.3089" y1="238.8818" x2="272.3047" y2="241.6619">
			<stop  offset="0" style="stop-color:#E8E8E8"/>
			<stop  offset="6.743070e-002" style="stop-color:#D6D7D7"/>
			<stop  offset="0.2772" style="stop-color:#A4A8A8"/>
			<stop  offset="0.475" style="stop-color:#7D8283"/>
			<stop  offset="0.6554" style="stop-color:#606769"/>
			<stop  offset="0.8124" style="stop-color:#4F5759"/>
			<stop  offset="0.9286" style="stop-color:#495153"/>
		</linearGradient>
		<polygon id="XMLID_8_" class="st16" points="268.6,232.9 279.9,248.2 270.3,240.1 		"/>
		<path id="XMLID_7_" class="st17" d="M187.1,238.1"/>
		<linearGradient id="XMLID_100_" gradientUnits="userSpaceOnUse" x1="228.65" y1="238.3176" x2="226.9828" y2="220.8112">
			<stop  offset="0" style="stop-color:#E8E8E8"/>
			<stop  offset="0.1238" style="stop-color:#C9CACB"/>
			<stop  offset="0.327" style="stop-color:#9B9FA0"/>
			<stop  offset="0.5222" style="stop-color:#787D7F"/>
			<stop  offset="0.7045" style="stop-color:#5E6567"/>
			<stop  offset="0.8689" style="stop-color:#4E5658"/>
			<stop  offset="1" style="stop-color:#495153"/>
		</linearGradient>
		<path id="XMLID_4_" class="st18" d="M187.1,238.1l14.8-6c0,0,55.6,2.3,66.7,0.8l1.7,7.2C270.3,240.1,247.1,244.5,187.1,238.1z"/>
		<linearGradient id="XMLID_101_" gradientUnits="userSpaceOnUse" x1="232.5605" y1="220.6781" x2="233.3939" y2="240.6807">
			<stop  offset="0" style="stop-color:#E8E8E8"/>
			<stop  offset="6.743070e-002" style="stop-color:#D6D7D7"/>
			<stop  offset="0.2772" style="stop-color:#A4A8A8"/>
			<stop  offset="0.475" style="stop-color:#7D8283"/>
			<stop  offset="0.6554" style="stop-color:#606769"/>
			<stop  offset="0.8124" style="stop-color:#4F5759"/>
			<stop  offset="0.9286" style="stop-color:#495153"/>
		</linearGradient>
		<path id="XMLID_3_" class="st19" d="M270.3,240.1l9.5,8.1c0,0-52.3,3.5-90.1-1.3l-2.6-8.8C187.1,238.1,238.5,242.8,270.3,240.1z"
			/>
	</g>
</g>
</svg>
